Coordinates
version=1
nRows=32
nColumns=12
inDegrees=yes

Units are S.I. units (second, meters, Newtons, ...)
Angles are in degrees

endheader
time	SC_y	SC_z	SC_x	AC_y	AC_z	AC_x	GH_y	GH_z	GH_yy	EL_x	PS_y
       0.0              -56.19          1.283          72.44          56.02           4.37         -5.945         -33.97          44.62         -0.371          51.34          59.35
   0.01972              -56.18          1.286          72.43          56.02          4.369         -5.942         -33.97          44.62        -0.3634          51.35          59.35
   0.03945              -56.18          1.289          72.43          56.02          4.367         -5.938         -33.97          44.62        -0.3554          51.35          59.34
   0.05917              -56.17          1.292          72.43          56.01          4.365         -5.935         -33.97          44.62        -0.3469          51.35          59.34
    0.0789              -56.17          1.296          72.42          56.01          4.363         -5.931         -33.98          44.62        -0.3378          51.35          59.34
   0.09862              -56.16            1.3          72.42           56.0          4.361         -5.927         -33.98          44.63        -0.3281          51.35          59.33
    0.1183              -56.16          1.304          72.42           56.0          4.359         -5.923         -33.98          44.63        -0.3178          51.36          59.33
    0.1381              -56.15          1.309          72.41          55.99          4.357         -5.918         -33.98          44.63        -0.3067          51.36          59.33
    0.1578              -56.15          1.314          72.41          55.99          4.355         -5.913         -33.98          44.63        -0.2949          51.36          59.32
    0.1775              -56.14          1.319           72.4          55.98          4.352         -5.908         -33.98          44.64        -0.2822          51.37          59.32
    0.1972              -56.13          1.325           72.4          55.98          4.349         -5.902         -33.99          44.64        -0.2686          51.37          59.31
     0.217              -56.12          1.331          72.39          55.97          4.346         -5.896         -33.99          44.64        -0.2539          51.37          59.31
    0.2367              -56.12          1.337          72.39          55.96          4.343         -5.889         -33.99          44.65        -0.2381          51.38           59.3
    0.2564              -56.11          1.344          72.38          55.95           4.34         -5.882         -33.99          44.65         -0.221          51.38           59.3
    0.2761               -56.1          1.352          72.37          55.95          4.336         -5.874          -34.0          44.65        -0.2025          51.39          59.29
    0.2959              -56.09           1.36          72.36          55.94          4.332         -5.866          -34.0          44.66        -0.1825          51.39          59.28
    0.3156              -56.07          1.369          72.36          55.93          4.327         -5.857          -34.0          44.66        -0.1607           51.4          59.27
    0.3353              -56.06          1.379          72.35          55.92          4.322         -5.847         -34.01          44.67        -0.1369          51.41          59.27
     0.355              -56.05          1.389          72.34           55.9          4.317         -5.836         -34.01          44.67         -0.111          51.41          59.26
    0.3748              -56.03          1.401          72.32          55.89          4.311         -5.824         -34.02          44.68       -0.08262          51.42          59.25
    0.3945              -56.02          1.414          72.31          55.88          4.305         -5.811         -34.02          44.69       -0.05146          51.43          59.23
    0.4142               -56.0          1.428           72.3          55.86          4.298         -5.797         -34.03           44.7       -0.01715          51.44          59.22
    0.4339              -55.98          1.443          72.28          55.84           4.29         -5.781         -34.03           44.7        0.02074          51.45          59.21
    0.4537              -55.95          1.461          72.27          55.82          4.282         -5.764         -34.04          44.71        0.06271          51.46          59.19
    0.4734              -55.93           1.48          72.25           55.8          4.272         -5.744         -34.05          44.72         0.1094          51.47          59.18
    0.4931               -55.9          1.501          72.23          55.78          4.262         -5.722         -34.05          44.74         0.1615          51.48          59.16
    0.5128              -55.87          1.525          72.21          55.75           4.25         -5.698         -34.06          44.75         0.2198           51.5          59.14
    0.5326              -55.84          1.552          72.18          55.72          4.236         -5.671         -34.07          44.76         0.2854          51.52          59.11
    0.5523               -55.8          1.583          72.15          55.68          4.221          -5.64         -34.09          44.78         0.3596          51.54          59.09
     0.572              -55.75          1.617          72.12          55.65          4.204         -5.605          -34.1           44.8         0.4437          51.56          59.05
    0.5917               -55.7          1.657          72.08           55.6          4.185         -5.564         -34.11          44.82         0.5398          51.58          59.02
    0.6115              -55.64          1.702          72.04          55.55          4.162         -5.518         -34.13          44.84         0.6501          51.61          58.98
